# xmcd
#
# Track frame offsets: 
#        150
#        15650
#        39330
#        50885
#        80047
#        114287
#        132055
#        150592
#        166517
#        185870
#        205715
#        233397
#        253367
#        271452
#        288875
#        308385
#        324572
#        341642
#
# Disc length: 4662 seconds
#
# Revision: 3
# Processed by: cddbd v1.5.2PL0 Copyright (c) Steve Scherf et al.
# Submitted via: ExactAudioCopy v0.95b4
#
DISCID=ef123412
DTITLE=Ministry Of Sound - Ministry Of Sound: The Chillout Session [CD
DTITLE=2)
DYEAR=2001
DGENRE=House
TTITLE0=Jakatta - American Dream (Radio Edit)
TTITLE1=York - The Awakening (Mellow Mix)
TTITLE2=Sasha And Emerson - Scorchio (Emerson's Late Night Dub)
TTITLE3=Medway -  Resurrection
TTITLE4=Underworld - Cups (Salt City Orchestra's Vertical Bacon Vocal)
TTITLE5=Etienne De Crecy - Prix Choc (Alex Gopher's Free Tax Mix)
TTITLE6=Afro Medusa - Pasilda (Afterlife Mix)
TTITLE7=Wamdue Project - King Of My Castle (Original Radio Edit)
TTITLE8=Alex Gopher - The Child
TTITLE9=Bent - Swollen (Beloved Café Del Marsh Mix)
TTITLE10=Sumsonic Presents... - Falling
TTITLE11=Amber - Sexual (Afterlife Mix)
TTITLE12=Bedrock - Beautiful Strange (Ambient Mix)
TTITLE13=Leftfield - Melt
TTITLE14=Orion - Eternity (Acoustic Mix)
TTITLE15=Watergate - Merry Christmas Mr. Lawrence (Heart Of Asia) (Ast
TTITLE15=ro Heavenly Remix)
TTITLE16=Energy 52 - Cafe Del Mar (Michael Woods Remix)
TTITLE17=William Orbit - Barber's Adagio For Strings
EXTD=MckOwdLarrd
EXTT0=
EXTT1=
EXTT2=
EXTT3=
EXTT4=
EXTT5=
EXTT6=
EXTT7=
EXTT8=
EXTT9=
EXTT10=
EXTT11=
EXTT12=
EXTT13=
EXTT14=
EXTT15=
EXTT16=
EXTT17=
PLAYORDER=
